<svg xmlns="http://www.w3.org/2000/svg" viewBox="0 0 192 192" width="192" height="192">
<defs>
<linearGradient id="bg" x1="0" y1="0" x2="192" y2="192" gradientUnits="userSpaceOnUse">
<stop offset="0%" stop-color="#d6eaf8"/>
<stop offset="100%" stop-color="#85c1e9"/>
</linearGradient>
</defs>
<rect width="192" height="192" rx="40" fill="url(#bg)"/>
<path d="M72 140 L72 40 C72 32 78 28 96 28 C114 28 120 32 120 40 L120 140" fill="#ffffff" stroke="#2980b9" stroke-width="4"/>
<path d="M78 130 L78 50 C78 42 84 38 96 38 C108 38 114 42 114 50 L114 130" fill="#eaf6ff" opacity="0.8"/>
<rect x="84" y="16" width="24" height="14" rx="4" fill="#1565c0"/>
<rect x="84" y="10" width="24" height="6" rx="3" fill="#1565c0"/>
<text x="96" y="100" text-anchor="middle" font-size="12" fill="#1a5276" font-weight="800" font-family="Arial">SAN</text>
<text x="96" y="116" text-anchor="middle" font-size="10" fill="#1a5276" font-weight="700" font-family="Arial">BENEDETTO</text>
<path d="M72 140 Q72 160 96 160 Q120 160 120 140" fill="#eaf6ff" stroke="#2980b9" stroke-width="3"/>
</svg>