<svg xmlns="http://www.w3.org/2000/svg" viewBox="0 0 512 512" width="512" height="512">
<defs>
<linearGradient id="bg" x1="0" y1="0" x2="512" y2="512" gradientUnits="userSpaceOnUse">
<stop offset="0%" stop-color="#d6eaf8"/>
<stop offset="100%" stop-color="#85c1e9"/>
</linearGradient>
</defs>
<rect width="512" height="512" rx="100" fill="url(#bg)"/>
<path d="M180 380 L180 100 C180 80 200 70 256 70 C312 70 332 80 332 100 L332 380" fill="#ffffff" stroke="#2980b9" stroke-width="10"/>
<path d="M200 350 L200 120 C200 100 220 90 256 90 C292 90 312 100 312 120 L312 350" fill="#eaf6ff" opacity="0.8"/>
<rect x="220" y="35" width="72" height="38" rx="10" fill="#1565c0"/>
<rect x="220" y="18" width="72" height="18" rx="6" fill="#1565c0"/>
<text x="256" y="250" text-anchor="middle" font-size="36" fill="#1a5276" font-weight="800" font-family="Arial">SAN</text>
<text x="256" y="295" text-anchor="middle" font-size="28" fill="#1a5276" font-weight="700" font-family="Arial">BENEDETTO</text>
<path d="M180 380 Q180 430 256 430 Q332 430 332 380" fill="#eaf6ff" stroke="#2980b9" stroke-width="8"/>
</svg>